<svg xmlns="http://www.w3.org/2000/svg" xmlns:xlink="http://www.w3.org/1999/xlink" width="1080" zoomAndPan="magnify" viewBox="0 0 810 809.999993" height="1080" preserveAspectRatio="xMidYMid meet" version="1.0"><defs><clipPath id="e7bc376faa"><path d="M 0 79.480469 L 810 79.480469 L 810 594 L 0 594 Z M 0 79.480469 " clip-rule="nonzero"/></clipPath><clipPath id="243e2ea155"><path d="M 124 556 L 686 556 L 686 730.480469 L 124 730.480469 Z M 124 556 " clip-rule="nonzero"/></clipPath></defs><g clip-path="url(#e7bc376faa)"><path fill="#100f0d" d="M 575.132812 235.679688 C 618.328125 279.074219 645.03125 338.90625 645.03125 404.980469 C 645.03125 427.21875 641.992188 448.742188 636.335938 469.179688 C 628.835938 465.882812 621.273438 462.761719 613.667969 459.804688 C 618.257812 442.296875 620.707031 423.929688 620.707031 404.980469 C 620.707031 352.757812 602.144531 304.871094 571.261719 267.554688 C 573.5625 257.382812 574.878906 246.675781 575.132812 235.679688 Z M 196.332031 459.804688 C 188.726562 462.761719 181.167969 465.882812 173.667969 469.179688 C 168.007812 448.742188 164.96875 427.21875 164.96875 404.980469 C 164.96875 338.933594 191.652344 279.125 234.820312 235.726562 L 234.820312 270.152344 C 234.820312 270.898438 234.851562 271.632812 234.875 272.367188 C 206.3125 308.953125 189.292969 354.976562 189.292969 404.980469 C 189.292969 423.929688 191.746094 442.296875 196.332031 459.804688 Z M 809.808594 593.960938 C 782.78125 561.136719 749.582031 533.480469 713.132812 510.183594 C 724.402344 477.179688 730.527344 441.800781 730.527344 404.980469 C 730.527344 225.210938 584.78125 79.472656 405 79.472656 C 225.214844 79.472656 79.472656 225.210938 79.472656 404.980469 C 79.472656 441.800781 85.59375 477.183594 96.863281 510.183594 C 60.414062 533.480469 27.214844 561.136719 0.191406 593.960938 C 0.191406 593.960938 113.597656 542.601562 268.132812 505.152344 C 270.929688 504.46875 273.730469 503.820312 276.535156 503.179688 L 274.335938 538.929688 C 273.535156 552.019531 283.933594 563.082031 297.050781 563.082031 L 297.546875 563.082031 C 299.363281 563.082031 301.121094 562.863281 302.808594 562.460938 C 292.292969 559.980469 284.660156 550.210938 285.355469 538.929688 L 295.441406 374.746094 C 297.011719 349.15625 288.867188 323.5 271.320312 304.800781 C 262.820312 295.738281 257.613281 283.558594 257.613281 270.152344 L 257.613281 138.980469 L 272.101562 138.980469 L 272.101562 251.648438 C 272.101562 255.644531 275.34375 258.890625 279.34375 258.890625 C 283.34375 258.890625 286.585938 255.644531 286.585938 251.648438 L 286.585938 138.980469 L 301.074219 138.980469 L 301.074219 251.648438 C 301.074219 255.644531 304.3125 258.890625 308.316406 258.890625 C 312.316406 258.890625 315.558594 255.644531 315.558594 251.648438 L 315.558594 138.980469 L 330.042969 138.980469 L 330.042969 251.648438 C 330.042969 255.644531 333.289062 258.890625 337.285156 258.890625 C 341.289062 258.890625 344.53125 255.644531 344.53125 251.648438 L 344.53125 138.980469 L 359.015625 138.980469 L 359.015625 270.152344 C 359.015625 283.558594 353.8125 295.738281 345.3125 304.800781 C 327.765625 323.5 319.617188 349.15625 321.191406 374.746094 L 328.511719 493.875 C 376.175781 487.546875 424.433594 487.15625 472.175781 492.707031 L 479.519531 373.195312 C 481 349.007812 473.152344 325.015625 457.023438 306.925781 C 441.988281 290.066406 432.207031 262.699219 432.207031 231.792969 C 432.207031 180.535156 459.109375 138.980469 492.300781 138.980469 C 525.488281 138.980469 552.386719 180.535156 552.386719 231.792969 C 552.386719 262.699219 542.605469 290.066406 527.574219 306.925781 C 511.445312 325.015625 503.59375 349.007812 505.078125 373.195312 L 515.257812 538.929688 C 515.953125 550.210938 508.320312 559.976562 497.804688 562.460938 C 499.492188 562.863281 501.253906 563.082031 503.066406 563.082031 L 503.558594 563.082031 C 516.675781 563.082031 527.082031 552.019531 526.273438 538.929688 L 523.953125 501.117188 C 529.9375 502.367188 535.914062 503.707031 541.867188 505.152344 C 696.402344 542.601562 809.808594 593.960938 809.808594 593.960938 " fill-opacity="1" fill-rule="nonzero"/></g><g clip-path="url(#243e2ea155)"><path fill="#100f0d" d="M 640.644531 556.152344 C 590.855469 633.601562 503.917969 684.90625 405 684.90625 C 306.082031 684.90625 219.152344 633.601562 169.355469 556.152344 C 153.570312 561.0625 138.648438 565.9375 124.738281 570.664062 C 181.429688 666.339844 285.722656 730.492188 405 730.492188 C 524.277344 730.492188 628.570312 666.339844 685.261719 570.664062 C 671.351562 565.9375 656.433594 561.0625 640.644531 556.152344 " fill-opacity="1" fill-rule="nonzero"/></g></svg>